#include <stdint.h>

uint8_t bridge_array[] = {
 0x4d, 0x54, 0x68, 0x64, 0x00, 0x00, 0x00, 0x06,
 0x00, 0x01, 0x00, 0x02, 0x00, 0xf0, 0x4d, 0x54,
 0x72, 0x6b, 0x00, 0x00, 0x00, 0x41, 0x00, 0xff,
 0x03, 0x14, 0x31, 0x31, 0x30, 0x20, 0x42, 0x72,
 0x69, 0x64, 0x67, 0x65, 0x20, 0x34, 0x2d, 0x46,
 0x65, 0x65, 0x6c, 0x20, 0x46, 0x33, 0x00, 0xff,
 0x58, 0x04, 0x04, 0x02, 0x18, 0x08, 0x00, 0xff,
 0x51, 0x03, 0x08, 0x52, 0xaf, 0x00, 0xff, 0x51,
 0x03, 0x08, 0x52, 0xaf, 0x00, 0xff, 0x51, 0x03,
 0x08, 0x52, 0xaf, 0xbc, 0x00, 0xff, 0x51, 0x03,
 0x08, 0x52, 0xaf, 0x00, 0xff, 0x2f, 0x00, 0x4d,
 0x54, 0x72, 0x6b, 0x00, 0x00, 0x03, 0xe4, 0x00,
 0xff, 0x03, 0x14, 0x31, 0x31, 0x30, 0x20, 0x42,
 0x72, 0x69, 0x64, 0x67, 0x65, 0x20, 0x34, 0x2d,
 0x46, 0x65, 0x65, 0x6c, 0x20, 0x46, 0x33, 0x00,
 0xff, 0x03, 0x14, 0x31, 0x31, 0x30, 0x20, 0x42,
 0x72, 0x69, 0x64, 0x67, 0x65, 0x20, 0x34, 0x2d,
 0x46, 0x65, 0x65, 0x6c, 0x20, 0x46, 0x33, 0x00,
 0x99, 0x31, 0x70, 0x00, 0x99, 0x24, 0x54, 0x2c,
 0x89, 0x31, 0x40, 0x00, 0x89, 0x24, 0x40, 0x42,
 0x99, 0x2a, 0x30, 0x2c, 0x89, 0x2a, 0x40, 0x50,
 0x99, 0x2a, 0x63, 0x01, 0x99, 0x25, 0x60, 0x2c,
 0x89, 0x2a, 0x40, 0x00, 0x89, 0x25, 0x40, 0x53,
 0x99, 0x2a, 0x2b, 0x2c, 0x89, 0x2a, 0x40, 0x49,
 0x99, 0x25, 0x63, 0x01, 0x99, 0x2a, 0x3e, 0x2c,
 0x89, 0x25, 0x40, 0x00, 0x89, 0x2a, 0x40, 0x47,
 0x99, 0x24, 0x4d, 0x00, 0x99, 0x2a, 0x1e, 0x2b,
 0x89, 0x24, 0x40, 0x01, 0x89, 0x2a, 0x40, 0x4f,
 0x99, 0x25, 0x66, 0x02, 0x99, 0x2a, 0x2a, 0x2a,
 0x89, 0x25, 0x40, 0x02, 0x89, 0x2a, 0x40, 0x47,
 0x99, 0x24, 0x46, 0x05, 0x99, 0x2a, 0x18, 0x28,
 0x89, 0x24, 0x40, 0x04, 0x89, 0x2a, 0x40, 0x4d,
 0x99, 0x2a, 0x3a, 0x00, 0x99, 0x25, 0x67, 0x02,
 0x99, 0x24, 0x48, 0x29, 0x89, 0x2a, 0x40, 0x02,
 0x89, 0x25, 0x40, 0x01, 0x89, 0x24, 0x40, 0x4e,
 0x99, 0x2a, 0x18, 0x2a, 0x89, 0x2a, 0x40, 0x4e,
 0x99, 0x25, 0x64, 0x02, 0x99, 0x2a, 0x3e, 0x2b,
 0x89, 0x25, 0x40, 0x00, 0x89, 0x2a, 0x40, 0x49,
 0x99, 0x2a, 0x2d, 0x2c, 0x89, 0x2a, 0x40, 0x4a,
 0x99, 0x25, 0x66, 0x03, 0x99, 0x2a, 0x40, 0x2b,
 0x89, 0x25, 0x40, 0x01, 0x89, 0x2a, 0x40, 0x4d,
 0x99, 0x24, 0x4d, 0x01, 0x99, 0x2a, 0x21, 0x2c,
 0x89, 0x24, 0x40, 0x00, 0x89, 0x2a, 0x40, 0x4d,
 0x99, 0x25, 0x64, 0x02, 0x99, 0x2a, 0x50, 0x2a,
 0x89, 0x25, 0x40, 0x02, 0x89, 0x2a, 0x40, 0x45,
 0x99, 0x24, 0x45, 0x01, 0x99, 0x2a, 0x1e, 0x2a,
 0x89, 0x24, 0x40, 0x02, 0x89, 0x2a, 0x40, 0x4a,
 0x99, 0x24, 0x45, 0x02, 0x99, 0x25, 0x66, 0x01,
 0x99, 0x2a, 0x3a, 0x28, 0x89, 0x24, 0x40, 0x03,
 0x89, 0x25, 0x40, 0x01, 0x89, 0x2a, 0x40, 0x4a,
 0x99, 0x2a, 0x1c, 0x2b, 0x89, 0x2a, 0x40, 0x50,
 0x99, 0x2a, 0x34, 0x01, 0x99, 0x25, 0x61, 0x2b,
 0x89, 0x2a, 0x40, 0x01, 0x89, 0x25, 0x40, 0x47,
 0x99, 0x2a, 0x20, 0x2b, 0x89, 0x2a, 0x40, 0x4e,
 0x99, 0x25, 0x64, 0x02, 0x99, 0x2a, 0x40, 0x29,
 0x89, 0x25, 0x40, 0x02, 0x89, 0x2a, 0x40, 0x47,
 0x99, 0x24, 0x47, 0x04, 0x99, 0x2a, 0x1c, 0x28,
 0x89, 0x24, 0x40, 0x04, 0x89, 0x2a, 0x40, 0x49,
 0x99, 0x25, 0x65, 0x03, 0x99, 0x2a, 0x67, 0x29,
 0x89, 0x25, 0x40, 0x03, 0x89, 0x2a, 0x40, 0x45,
 0x99, 0x24, 0x49, 0x01, 0x99, 0x2a, 0x24, 0x29,
 0x89, 0x24, 0x40, 0x03, 0x89, 0x2a, 0x40, 0x4f,
 0x99, 0x24, 0x48, 0x03, 0x99, 0x2a, 0x40, 0x01,
 0x99, 0x25, 0x64, 0x28, 0x89, 0x24, 0x40, 0x03,
 0x89, 0x2a, 0x40, 0x00, 0x89, 0x25, 0x40, 0x4c,
 0x99, 0x2a, 0x27, 0x2c, 0x89, 0x2a, 0x40, 0x4d,
 0x99, 0x25, 0x65, 0x00, 0x99, 0x2a, 0x34, 0x2d,
 0x89, 0x25, 0x40, 0x00, 0x89, 0x2a, 0x40, 0x48,
 0x99, 0x2a, 0x2a, 0x2c, 0x89, 0x2a, 0x40, 0x4a,
 0x99, 0x25, 0x66, 0x01, 0x99, 0x2a, 0x44, 0x2b,
 0x89, 0x25, 0x40, 0x02, 0x89, 0x2a, 0x40, 0x4a,
 0x99, 0x2a, 0x24, 0x03, 0x99, 0x24, 0x48, 0x28,
 0x89, 0x2a, 0x40, 0x03, 0x89, 0x24, 0x40, 0x4b,
 0x99, 0x2a, 0x2d, 0x01, 0x99, 0x25, 0x63, 0x2c,
 0x89, 0x2a, 0x40, 0x00, 0x89, 0x25, 0x40, 0x43,
 0x99, 0x24, 0x4b, 0x06, 0x99, 0x2a, 0x7f, 0x28,
 0x89, 0x24, 0x40, 0x03, 0x89, 0x2a, 0x40, 0x45,
 0x99, 0x2c, 0x71, 0x09, 0x99, 0x25, 0x65, 0x01,
 0x99, 0x24, 0x4c, 0x20, 0x89, 0x2c, 0x40, 0x0c,
 0x89, 0x25, 0x40, 0x02, 0x89, 0x24, 0x40, 0x42,
 0x99, 0x2a, 0x1e, 0x2c, 0x89, 0x2a, 0x40, 0x4c,
 0x99, 0x2a, 0x40, 0x02, 0x99, 0x25, 0x66, 0x2a,
 0x89, 0x2a, 0x40, 0x03, 0x89, 0x25, 0x40, 0x4f,
 0x99, 0x2a, 0x21, 0x2c, 0x89, 0x2a, 0x40, 0x4d,
 0x99, 0x25, 0x61, 0x02, 0x99, 0x2a, 0x4a, 0x2b,
 0x89, 0x25, 0x40, 0x01, 0x89, 0x2a, 0x40, 0x49,
 0x99, 0x24, 0x4a, 0x05, 0x99, 0x2a, 0x2d, 0x27,
 0x89, 0x24, 0x40, 0x06, 0x89, 0x2a, 0x40, 0x4a,
 0x99, 0x25, 0x64, 0x03, 0x99, 0x2a, 0x50, 0x29,
 0x89, 0x25, 0x40, 0x03, 0x89, 0x2a, 0x40, 0x44,
 0x99, 0x24, 0x46, 0x03, 0x99, 0x2a, 0x46, 0x29,
 0x89, 0x24, 0x40, 0x04, 0x89, 0x2a, 0x40, 0x48,
 0x99, 0x24, 0x50, 0x03, 0x99, 0x25, 0x63, 0x01,
 0x99, 0x2a, 0x63, 0x29, 0x89, 0x24, 0x40, 0x02,
 0x89, 0x25, 0x40, 0x01, 0x89, 0x2a, 0x40, 0x50,
 0x99, 0x2a, 0x1e, 0x2b, 0x89, 0x2a, 0x40, 0x4d,
 0x99, 0x25, 0x64, 0x03, 0x99, 0x2a, 0x40, 0x27,
 0x89, 0x25, 0x40, 0x04, 0x89, 0x2a, 0x40, 0x47,
 0x99, 0x2a, 0x2a, 0x2b, 0x89, 0x2a, 0x40, 0x48,
 0x99, 0x2a, 0x3e, 0x02, 0x99, 0x25, 0x67, 0x2a,
 0x89, 0x2a, 0x40, 0x02, 0x89, 0x25, 0x40, 0x4c,
 0x99, 0x24, 0x47, 0x04, 0x99, 0x2a, 0x1e, 0x28,
 0x89, 0x24, 0x40, 0x04, 0x89, 0x2a, 0x40, 0x47,
 0x99, 0x25, 0x63, 0x04, 0x99, 0x2a, 0x3a, 0x28,
 0x89, 0x25, 0x40, 0x05, 0x89, 0x2a, 0x40, 0x43,
 0x99, 0x24, 0x45, 0x02, 0x99, 0x2a, 0x1e, 0x2b,
 0x89, 0x24, 0x40, 0x02, 0x89, 0x2a, 0x40, 0x49,
 0x99, 0x2a, 0x34, 0x01, 0x99, 0x25, 0x63, 0x01,
 0x99, 0x24, 0x4b, 0x2a, 0x89, 0x2a, 0x40, 0x01,
 0x89, 0x25, 0x40, 0x02, 0x89, 0x24, 0x40, 0x4c,
 0x99, 0x2a, 0x27, 0x2b, 0x89, 0x2a, 0x40, 0x4d,
 0x99, 0x25, 0x63, 0x01, 0x99, 0x2a, 0x56, 0x2b,
 0x89, 0x25, 0x40, 0x00, 0x89, 0x2a, 0x40, 0x4c,
 0x99, 0x2a, 0x2d, 0x2c, 0x89, 0x2a, 0x40, 0x48,
 0x99, 0x25, 0x61, 0x03, 0x99, 0x2a, 0x33, 0x29,
 0x89, 0x25, 0x40, 0x03, 0x89, 0x2a, 0x40, 0x4a,
 0x99, 0x24, 0x46, 0x02, 0x99, 0x2a, 0x30, 0x2b,
 0x89, 0x24, 0x40, 0x01, 0x89, 0x2a, 0x40, 0x48,
 0x99, 0x25, 0x66, 0x03, 0x99, 0x2a, 0x5d, 0x2a,
 0x89, 0x25, 0x40, 0x02, 0x89, 0x2a, 0x40, 0x42,
 0x99, 0x24, 0x4b, 0x04, 0x99, 0x2a, 0x34, 0x29,
 0x89, 0x24, 0x40, 0x04, 0x89, 0x2a, 0x40, 0x4c,
 0x99, 0x24, 0x49, 0x00, 0x99, 0x25, 0x63, 0x03,
 0x99, 0x2a, 0x5d, 0x29, 0x89, 0x24, 0x40, 0x00,
 0x89, 0x25, 0x40, 0x04, 0x89, 0x2a, 0x40, 0x4d,
 0x99, 0x2a, 0x3e, 0x2c, 0x89, 0x2a, 0x40, 0x4e,
 0x99, 0x25, 0x61, 0x02, 0x99, 0x2a, 0x7f, 0x2a,
 0x89, 0x25, 0x40, 0x01, 0x89, 0x2a, 0x40, 0x45,
 0x99, 0x37, 0x65, 0x02, 0x99, 0x24, 0x4c, 0x2a,
 0x89, 0x37, 0x40, 0x03, 0x89, 0x24, 0x40, 0x4b,
 0x99, 0x24, 0x4c, 0x02, 0x99, 0x2a, 0x7f, 0x29,
 0x89, 0x24, 0x40, 0x04, 0x89, 0x2a, 0x40, 0x4d,
 0x99, 0x2f, 0x72, 0x2c, 0x89, 0x2f, 0x40, 0x08,
 0x99, 0x26, 0x35, 0x2d, 0x89, 0x26, 0x40, 0x10,
 0x99, 0x26, 0x74, 0x2d, 0x89, 0x26, 0x40, 0x51,
 0x99, 0x2b, 0x69, 0x2c, 0x89, 0x2b, 0x40, 0x00,
 0xff, 0x2f, 0x00,
};

int bridge_size = sizeof(bridge_array);
