#include <stdint.h>

uint8_t F1_array[] = {
 0x4d, 0x54, 0x68, 0x64, 0x00, 0x00, 0x00, 0x06,
 0x00, 0x01, 0x00, 0x02, 0x00, 0xf0, 0x4d, 0x54,
 0x72, 0x6b, 0x00, 0x00, 0x00, 0x36, 0x00, 0xff,
 0x03, 0x17, 0x31, 0x32, 0x30, 0x20, 0x42, 0x72,
 0x69, 0x64, 0x67, 0x65, 0x20, 0x48, 0x61, 0x6c,
 0x66, 0x2d, 0x54, 0x69, 0x6d, 0x65, 0x20, 0x46,
 0x31, 0x00, 0xff, 0x58, 0x04, 0x04, 0x02, 0x18,
 0x08, 0x00, 0xff, 0x51, 0x03, 0x07, 0xa1, 0x20,
 0xbc, 0x00, 0xff, 0x51, 0x03, 0x07, 0xa1, 0x20,
 0x00, 0xff, 0x2f, 0x00, 0x4d, 0x54, 0x72, 0x6b,
 0x00, 0x00, 0x03, 0x1a, 0x00, 0xff, 0x03, 0x17,
 0x31, 0x32, 0x30, 0x20, 0x42, 0x72, 0x69, 0x64,
 0x67, 0x65, 0x20, 0x48, 0x61, 0x6c, 0x66, 0x2d,
 0x54, 0x69, 0x6d, 0x65, 0x20, 0x46, 0x31, 0x00,
 0xff, 0x03, 0x17, 0x31, 0x32, 0x30, 0x20, 0x42,
 0x72, 0x69, 0x64, 0x67, 0x65, 0x20, 0x48, 0x61,
 0x6c, 0x66, 0x2d, 0x54, 0x69, 0x6d, 0x65, 0x20,
 0x46, 0x31, 0x00, 0x99, 0x39, 0x74, 0x00, 0x99,
 0x24, 0x6a, 0x2f, 0x89, 0x39, 0x40, 0x01, 0x89,
 0x24, 0x40, 0x47, 0x99, 0x2a, 0x4b, 0x31, 0x89,
 0x2a, 0x40, 0x48, 0x99, 0x2a, 0x3e, 0x2f, 0x89,
 0x2a, 0x40, 0x43, 0x99, 0x2a, 0x50, 0x31, 0x89,
 0x2a, 0x40, 0x45, 0x99, 0x26, 0x76, 0x00, 0x99,
 0x2a, 0x54, 0x2f, 0x89, 0x26, 0x40, 0x01, 0x89,
 0x2a, 0x40, 0x43, 0x99, 0x2a, 0x48, 0x30, 0x89,
 0x2a, 0x40, 0x4e, 0x99, 0x24, 0x52, 0x01, 0x99,
 0x2a, 0x29, 0x2f, 0x89, 0x24, 0x40, 0x00, 0x89,
 0x2a, 0x40, 0x47, 0x99, 0x2a, 0x55, 0x01, 0x99,
 0x24, 0x52, 0x2d, 0x89, 0x2a, 0x40, 0x04, 0x89,
 0x24, 0x40, 0x48, 0x99, 0x2a, 0x4d, 0x31, 0x89,
 0x2a, 0x40, 0x3c, 0x99, 0x2a, 0x48, 0x30, 0x89,
 0x2a, 0x40, 0x4b, 0x99, 0x2a, 0x3a, 0x2f, 0x89,
 0x2a, 0x40, 0x46, 0x99, 0x2a, 0x49, 0x30, 0x89,
 0x2a, 0x40, 0x4f, 0x99, 0x26, 0x77, 0x02, 0x99,
 0x2a, 0x4d, 0x2e, 0x89, 0x26, 0x40, 0x01, 0x89,
 0x2a, 0x40, 0x4c, 0x99, 0x2a, 0x3c, 0x2f, 0x89,
 0x2a, 0x40, 0x49, 0x99, 0x2a, 0x52, 0x30, 0x89,
 0x2a, 0x40, 0x46, 0x99, 0x2a, 0x4d, 0x30, 0x89,
 0x2a, 0x40, 0x4a, 0x99, 0x24, 0x51, 0x08, 0x99,
 0x2a, 0x4b, 0x28, 0x89, 0x24, 0x40, 0x08, 0x89,
 0x2a, 0x40, 0x43, 0x99, 0x2a, 0x4f, 0x31, 0x89,
 0x2a, 0x40, 0x41, 0x99, 0x2a, 0x33, 0x2f, 0x89,
 0x2a, 0x40, 0x47, 0x99, 0x2a, 0x49, 0x30, 0x89,
 0x2a, 0x40, 0x4d, 0x99, 0x2a, 0x48, 0x00, 0x99,
 0x26, 0x74, 0x30, 0x89, 0x2a, 0x40, 0x01, 0x89,
 0x26, 0x40, 0x45, 0x99, 0x2a, 0x45, 0x2f, 0x89,
 0x2a, 0x40, 0x47, 0x99, 0x24, 0x4f, 0x00, 0x99,
 0x2a, 0x39, 0x2f, 0x89, 0x24, 0x40, 0x01, 0x89,
 0x2a, 0x40, 0x47, 0x99, 0x2a, 0x50, 0x02, 0x99,
 0x24, 0x51, 0x2d, 0x89, 0x2a, 0x40, 0x03, 0x89,
 0x24, 0x40, 0x4a, 0x99, 0x2a, 0x38, 0x2f, 0x89,
 0x2a, 0x40, 0x46, 0x99, 0x2a, 0x7e, 0x01, 0x99,
 0x26, 0x7b, 0x2f, 0x89, 0x2a, 0x40, 0x02, 0x89,
 0x26, 0x40, 0x46, 0x99, 0x2a, 0x34, 0x2f, 0x89,
 0x2a, 0x40, 0x49, 0x99, 0x2a, 0x4b, 0x03, 0x99,
 0x24, 0x50, 0x2d, 0x89, 0x2a, 0x40, 0x02, 0x89,
 0x24, 0x40, 0x46, 0x99, 0x2a, 0x54, 0x05, 0x99,
 0x26, 0x6f, 0x2a, 0x89, 0x2a, 0x40, 0x07, 0x89,
 0x26, 0x40, 0x40, 0x99, 0x2a, 0x4b, 0x31, 0x89,
 0x2a, 0x40, 0x4b, 0x99, 0x2a, 0x49, 0x01, 0x99,
 0x26, 0x7f, 0x30, 0x89, 0x2a, 0x40, 0x00, 0x89,
 0x26, 0x40, 0x51, 0x99, 0x2a, 0x50, 0x30, 0x89,
 0x2a, 0x40, 0x49, 0x99, 0x24, 0x52, 0x01, 0x99,
 0x2a, 0x48, 0x2f, 0x89, 0x24, 0x40, 0x00, 0x89,
 0x2a, 0x40, 0x4c, 0x99, 0x2a, 0x5a, 0x31, 0x89,
 0x2a, 0x40, 0x47, 0x99, 0x2a, 0x46, 0x30, 0x89,
 0x2a, 0x40, 0x4d, 0x99, 0x2a, 0x4f, 0x2f, 0x89,
 0x2a, 0x40, 0x42, 0x99, 0x2a, 0x5d, 0x01, 0x99,
 0x26, 0x77, 0x2f, 0x89, 0x2a, 0x40, 0x02, 0x89,
 0x26, 0x40, 0x47, 0x99, 0x2a, 0x35, 0x30, 0x89,
 0x2a, 0x40, 0x37, 0x99, 0x24, 0x55, 0x04, 0x99,
 0x2a, 0x3c, 0x2c, 0x89, 0x24, 0x40, 0x05, 0x89,
 0x2a, 0x40, 0x48, 0x99, 0x24, 0x57, 0x01, 0x99,
 0x2a, 0x3f, 0x2f, 0x89, 0x2a, 0x40, 0x01, 0x89,
 0x24, 0x40, 0x44, 0x99, 0x2a, 0x43, 0x30, 0x89,
 0x2a, 0x40, 0x4d, 0x99, 0x2a, 0x39, 0x30, 0x89,
 0x2a, 0x40, 0x45, 0x99, 0x2a, 0x40, 0x30, 0x89,
 0x2a, 0x40, 0x49, 0x99, 0x2a, 0x3e, 0x30, 0x89,
 0x2a, 0x40, 0x45, 0x99, 0x26, 0x70, 0x01, 0x99,
 0x2a, 0x45, 0x30, 0x89, 0x26, 0x40, 0x00, 0x89,
 0x2a, 0x40, 0x47, 0x99, 0x2a, 0x3c, 0x2f, 0x89,
 0x2a, 0x40, 0x42, 0x99, 0x2a, 0x3b, 0x30, 0x89,
 0x2a, 0x40, 0x4c, 0x99, 0x2a, 0x3b, 0x2f, 0x89,
 0x2a, 0x40, 0x4d, 0x99, 0x2a, 0x44, 0x02, 0x99,
 0x24, 0x50, 0x2e, 0x89, 0x2a, 0x40, 0x02, 0x89,
 0x24, 0x40, 0x4b, 0x99, 0x2a, 0x34, 0x31, 0x89,
 0x2a, 0x40, 0x42, 0x99, 0x2a, 0x43, 0x30, 0x89,
 0x2a, 0x40, 0x4b, 0x99, 0x2a, 0x45, 0x2f, 0x89,
 0x2a, 0x40, 0x49, 0x99, 0x2a, 0x4b, 0x01, 0x99,
 0x26, 0x74, 0x30, 0x89, 0x2a, 0x40, 0x01, 0x89,
 0x26, 0x40, 0x3d, 0x99, 0x2a, 0x46, 0x30, 0x89,
 0x2a, 0x40, 0x4e, 0x99, 0x2a, 0x33, 0x02, 0x99,
 0x24, 0x53, 0x2e, 0x89, 0x2a, 0x40, 0x02, 0x89,
 0x24, 0x40, 0x44, 0x99, 0x24, 0x54, 0x05, 0x99,
 0x2a, 0x49, 0x2b, 0x89, 0x24, 0x40, 0x03, 0x89,
 0x2a, 0x40, 0x44, 0x99, 0x2a, 0x39, 0x31, 0x89,
 0x2a, 0x40, 0x49, 0x99, 0x26, 0x77, 0x02, 0x99,
 0x2a, 0x76, 0x30, 0x89, 0x26, 0x40, 0x00, 0x89,
 0x2a, 0x40, 0x40, 0x99, 0x2a, 0x54, 0x2e, 0x89,
 0x2a, 0x40, 0x42, 0x99, 0x24, 0x55, 0x08, 0x99,
 0x2a, 0x5c, 0x28, 0x89, 0x24, 0x40, 0x07, 0x89,
 0x2a, 0x40, 0x4d, 0x99, 0x26, 0x7f, 0x00, 0x99,
 0x2a, 0x7b, 0x31, 0x89, 0x26, 0x40, 0x00, 0x89,
 0x2a, 0x40, 0x3d, 0x99, 0x2a, 0x43, 0x30, 0x89,
 0x2a, 0x40, 0x13, 0x99, 0x26, 0x33, 0x31, 0x89,
 0x26, 0x40, 0x06, 0x99, 0x26, 0x7e, 0x30, 0x89,
 0x26, 0x40, 0x07, 0x99, 0x26, 0x23, 0x31, 0x89,
 0x26, 0x40, 0x19, 0x99, 0x26, 0x33, 0x2f, 0x89,
 0x26, 0x40, 0x0c, 0x99, 0x26, 0x6d, 0x30, 0x89,
 0x26, 0x40, 0x00, 0xff, 0x2f, 0x00,
};

int F1_size = sizeof(F1_array);
