#include <stdint.h>

uint8_t F2_array[] = {
 0x4d, 0x54, 0x68, 0x64, 0x00, 0x00, 0x00, 0x06,
 0x00, 0x01, 0x00, 0x02, 0x00, 0xf0, 0x4d, 0x54,
 0x72, 0x6b, 0x00, 0x00, 0x01, 0x0f, 0x00, 0xff,
 0x03, 0x17, 0x31, 0x31, 0x30, 0x20, 0x56, 0x65,
 0x72, 0x73, 0x65, 0x20, 0x38, 0x74, 0x68, 0x73,
 0x20, 0x53, 0x74, 0x69, 0x63, 0x6b, 0x20, 0x46,
 0x32, 0x00, 0xff, 0x58, 0x04, 0x04, 0x02, 0x18,
 0x08, 0x00, 0xff, 0x51, 0x03, 0x08, 0x52, 0xaf,
 0x00, 0xff, 0x51, 0x03, 0x08, 0x52, 0xaf, 0x00,
 0xff, 0x51, 0x03, 0x08, 0x52, 0xaf, 0x00, 0xff,
 0x51, 0x03, 0x08, 0x52, 0xaf, 0x00, 0xff, 0x51,
 0x03, 0x08, 0x52, 0xaf, 0x00, 0xff, 0x51, 0x03,
 0x08, 0x52, 0xaf, 0x00, 0xff, 0x51, 0x03, 0x08,
 0x52, 0xaf, 0x00, 0xff, 0x51, 0x03, 0x08, 0x52,
 0xaf, 0x00, 0xff, 0x51, 0x03, 0x08, 0x52, 0xaf,
 0x00, 0xff, 0x51, 0x03, 0x08, 0x52, 0xaf, 0x00,
 0xff, 0x51, 0x03, 0x08, 0x52, 0xaf, 0x00, 0xff,
 0x51, 0x03, 0x08, 0x52, 0xaf, 0x00, 0xff, 0x51,
 0x03, 0x08, 0x52, 0xaf, 0x00, 0xff, 0x51, 0x03,
 0x08, 0x52, 0xaf, 0x00, 0xff, 0x51, 0x03, 0x08,
 0x52, 0xaf, 0x00, 0xff, 0x51, 0x03, 0x08, 0x52,
 0xaf, 0x00, 0xff, 0x51, 0x03, 0x08, 0x52, 0xaf,
 0x00, 0xff, 0x51, 0x03, 0x08, 0x52, 0xaf, 0x00,
 0xff, 0x51, 0x03, 0x08, 0x52, 0xaf, 0x00, 0xff,
 0x51, 0x03, 0x08, 0x52, 0xaf, 0x00, 0xff, 0x51,
 0x03, 0x08, 0x52, 0xaf, 0x00, 0xff, 0x51, 0x03,
 0x08, 0x52, 0xaf, 0x00, 0xff, 0x51, 0x03, 0x08,
 0x52, 0xaf, 0x00, 0xff, 0x51, 0x03, 0x08, 0x52,
 0xaf, 0x00, 0xff, 0x51, 0x03, 0x08, 0x52, 0xaf,
 0x00, 0xff, 0x51, 0x03, 0x08, 0x52, 0xaf, 0x00,
 0xff, 0x51, 0x03, 0x08, 0x52, 0xaf, 0x00, 0xff,
 0x51, 0x03, 0x08, 0x52, 0xaf, 0x00, 0xff, 0x51,
 0x03, 0x08, 0x52, 0xaf, 0x00, 0xff, 0x51, 0x03,
 0x08, 0x52, 0xaf, 0x00, 0xff, 0x51, 0x03, 0x08,
 0x52, 0xaf, 0x00, 0xff, 0x51, 0x03, 0x08, 0x52,
 0xaf, 0xbc, 0x00, 0xff, 0x51, 0x03, 0x08, 0x52,
 0xaf, 0x00, 0xff, 0x2f, 0x00, 0x4d, 0x54, 0x72,
 0x6b, 0x00, 0x00, 0x03, 0x8a, 0x00, 0xff, 0x03,
 0x17, 0x31, 0x31, 0x30, 0x20, 0x56, 0x65, 0x72,
 0x73, 0x65, 0x20, 0x38, 0x74, 0x68, 0x73, 0x20,
 0x53, 0x74, 0x69, 0x63, 0x6b, 0x20, 0x46, 0x32,
 0x00, 0xff, 0x03, 0x17, 0x31, 0x31, 0x30, 0x20,
 0x56, 0x65, 0x72, 0x73, 0x65, 0x20, 0x38, 0x74,
 0x68, 0x73, 0x20, 0x53, 0x74, 0x69, 0x63, 0x6b,
 0x20, 0x46, 0x32, 0x00, 0x99, 0x31, 0x70, 0x00,
 0x99, 0x24, 0x63, 0x2b, 0x89, 0x31, 0x40, 0x01,
 0x89, 0x24, 0x40, 0x48, 0x99, 0x2a, 0x44, 0x2d,
 0x89, 0x2a, 0x40, 0x4b, 0x99, 0x25, 0x6c, 0x07,
 0x99, 0x2a, 0x4a, 0x25, 0x89, 0x25, 0x40, 0x07,
 0x89, 0x2a, 0x40, 0x48, 0x99, 0x2a, 0x29, 0x2d,
 0x89, 0x2a, 0x40, 0x4b, 0x99, 0x2a, 0x3e, 0x2c,
 0x89, 0x2a, 0x40, 0x48, 0x99, 0x24, 0x51, 0x03,
 0x99, 0x2a, 0x3d, 0x29, 0x89, 0x24, 0x40, 0x03,
 0x89, 0x2a, 0x40, 0x4a, 0x99, 0x25, 0x63, 0x03,
 0x99, 0x2a, 0x46, 0x29, 0x89, 0x25, 0x40, 0x04,
 0x89, 0x2a, 0x40, 0x47, 0x99, 0x2a, 0x3e, 0x03,
 0x99, 0x24, 0x54, 0x29, 0x89, 0x2a, 0x40, 0x02,
 0x89, 0x24, 0x40, 0x4b, 0x99, 0x24, 0x50, 0x02,
 0x99, 0x2a, 0x4d, 0x2b, 0x89, 0x24, 0x40, 0x01,
 0x89, 0x2a, 0x40, 0x4b, 0x99, 0x2a, 0x39, 0x2c,
 0x89, 0x2a, 0x40, 0x4e, 0x99, 0x25, 0x66, 0x02,
 0x99, 0x2a, 0x46, 0x2a, 0x89, 0x25, 0x40, 0x01,
 0x89, 0x2a, 0x40, 0x49, 0x99, 0x24, 0x54, 0x06,
 0x99, 0x2a, 0x40, 0x27, 0x89, 0x24, 0x40, 0x04,
 0x89, 0x2a, 0x40, 0x4d, 0x99, 0x2a, 0x46, 0x2d,
 0x89, 0x2a, 0x40, 0x48, 0x99, 0x24, 0x51, 0x06,
 0x99, 0x2a, 0x3e, 0x25, 0x89, 0x24, 0x40, 0x06,
 0x89, 0x2a, 0x40, 0x4a, 0x99, 0x25, 0x69, 0x02,
 0x99, 0x2a, 0x4a, 0x2b, 0x89, 0x25, 0x40, 0x00,
 0x89, 0x2a, 0x40, 0x45, 0x99, 0x24, 0x55, 0x01,
 0x99, 0x2a, 0x3d, 0x2b, 0x89, 0x24, 0x40, 0x01,
 0x89, 0x2a, 0x40, 0x49, 0x99, 0x24, 0x51, 0x06,
 0x99, 0x2a, 0x47, 0x26, 0x89, 0x24, 0x40, 0x06,
 0x89, 0x2a, 0x40, 0x50, 0x99, 0x2a, 0x3b, 0x2d,
 0x89, 0x2a, 0x40, 0x4b, 0x99, 0x25, 0x69, 0x04,
 0x99, 0x2a, 0x49, 0x29, 0x89, 0x25, 0x40, 0x03,
 0x89, 0x2a, 0x40, 0x47, 0x99, 0x2a, 0x35, 0x2b,
 0x89, 0x2a, 0x40, 0x4c, 0x99, 0x2a, 0x42, 0x2c,
 0x89, 0x2a, 0x40, 0x44, 0x99, 0x24, 0x52, 0x06,
 0x99, 0x2a, 0x40, 0x25, 0x89, 0x24, 0x40, 0x08,
 0x89, 0x2a, 0x40, 0x45, 0x99, 0x25, 0x63, 0x02,
 0x99, 0x2a, 0x4f, 0x2a, 0x89, 0x25, 0x40, 0x01,
 0x89, 0x2a, 0x40, 0x4b, 0x99, 0x2a, 0x3e, 0x00,
 0x99, 0x24, 0x55, 0x2c, 0x89, 0x2a, 0x40, 0x01,
 0x89, 0x24, 0x40, 0x4e, 0x99, 0x24, 0x4f, 0x04,
 0x99, 0x2a, 0x4f, 0x28, 0x89, 0x24, 0x40, 0x04,
 0x89, 0x2a, 0x40, 0x4e, 0x99, 0x2a, 0x3b, 0x2c,
 0x89, 0x2a, 0x40, 0x49, 0x99, 0x25, 0x65, 0x04,
 0x99, 0x2a, 0x44, 0x26, 0x89, 0x25, 0x40, 0x06,
 0x89, 0x2a, 0x40, 0x49, 0x99, 0x24, 0x51, 0x01,
 0x99, 0x2a, 0x49, 0x2a, 0x89, 0x24, 0x40, 0x03,
 0x89, 0x2a, 0x40, 0x4c, 0x99, 0x2a, 0x44, 0x2c,
 0x89, 0x2a, 0x40, 0x44, 0x99, 0x24, 0x51, 0x0a,
 0x99, 0x2a, 0x46, 0x23, 0x89, 0x24, 0x40, 0x09,
 0x89, 0x2a, 0x40, 0x45, 0x99, 0x25, 0x61, 0x06,
 0x99, 0x2a, 0x59, 0x25, 0x89, 0x25, 0x40, 0x07,
 0x89, 0x2a, 0x40, 0x44, 0x99, 0x24, 0x54, 0x02,
 0x99, 0x2a, 0x42, 0x2a, 0x89, 0x24, 0x40, 0x03,
 0x89, 0x2a, 0x40, 0x48, 0x99, 0x24, 0x54, 0x06,
 0x99, 0x2a, 0x49, 0x25, 0x89, 0x24, 0x40, 0x06,
 0x89, 0x2a, 0x40, 0x4d, 0x99, 0x2a, 0x3d, 0x2c,
 0x89, 0x2a, 0x40, 0x4e, 0x99, 0x25, 0x66, 0x03,
 0x99, 0x2a, 0x46, 0x2a, 0x89, 0x25, 0x40, 0x03,
 0x89, 0x2a, 0x40, 0x46, 0x99, 0x2a, 0x44, 0x2c,
 0x89, 0x2a, 0x40, 0x4e, 0x99, 0x2a, 0x4a, 0x2c,
 0x89, 0x2a, 0x40, 0x42, 0x99, 0x24, 0x52, 0x07,
 0x99, 0x2a, 0x42, 0x24, 0x89, 0x24, 0x40, 0x08,
 0x89, 0x2a, 0x40, 0x48, 0x99, 0x25, 0x67, 0x05,
 0x99, 0x2a, 0x3e, 0x26, 0x89, 0x25, 0x40, 0x06,
 0x89, 0x2a, 0x40, 0x42, 0x99, 0x24, 0x54, 0x09,
 0x99, 0x2a, 0x42, 0x24, 0x89, 0x24, 0x40, 0x06,
 0x89, 0x2a, 0x40, 0x47, 0x99, 0x24, 0x50, 0x07,
 0x99, 0x2a, 0x42, 0x26, 0x89, 0x24, 0x40, 0x05,
 0x89, 0x2a, 0x40, 0x4e, 0x99, 0x2a, 0x42, 0x2b,
 0x89, 0x2a, 0x40, 0x4a, 0x99, 0x25, 0x66, 0x05,
 0x99, 0x2a, 0x4d, 0x27, 0x89, 0x25, 0x40, 0x04,
 0x89, 0x2a, 0x40, 0x49, 0x99, 0x24, 0x51, 0x04,
 0x99, 0x2a, 0x44, 0x28, 0x89, 0x24, 0x40, 0x02,
 0x89, 0x2a, 0x40, 0x4f, 0x99, 0x2a, 0x4f, 0x2c,
 0x89, 0x2a, 0x40, 0x49, 0x99, 0x24, 0x50, 0x04,
 0x99, 0x2a, 0x3e, 0x29, 0x89, 0x24, 0x40, 0x03,
 0x89, 0x2a, 0x40, 0x4b, 0x99, 0x25, 0x6e, 0x03,
 0x99, 0x2a, 0x40, 0x29, 0x89, 0x25, 0x40, 0x02,
 0x89, 0x2a, 0x40, 0x43, 0x99, 0x24, 0x55, 0x06,
 0x99, 0x2a, 0x40, 0x26, 0x89, 0x24, 0x40, 0x06,
 0x89, 0x2a, 0x40, 0x46, 0x99, 0x24, 0x53, 0x08,
 0x99, 0x2a, 0x3e, 0x25, 0x89, 0x24, 0x40, 0x07,
 0x89, 0x2a, 0x40, 0x49, 0x99, 0x2a, 0x39, 0x2c,
 0x89, 0x2a, 0x40, 0x4d, 0x99, 0x25, 0x6c, 0x02,
 0x99, 0x2a, 0x4a, 0x2b, 0x89, 0x25, 0x40, 0x02,
 0x89, 0x2a, 0x40, 0x47, 0x99, 0x2a, 0x44, 0x2c,
 0x89, 0x2a, 0x40, 0x4e, 0x99, 0x2a, 0x46, 0x2c,
 0x89, 0x2a, 0x40, 0x4b, 0x99, 0x24, 0x58, 0x01,
 0x99, 0x2a, 0x47, 0x2b, 0x89, 0x24, 0x40, 0x01,
 0x89, 0x2a, 0x40, 0x4a, 0x99, 0x25, 0x67, 0x03,
 0x99, 0x2a, 0x4a, 0x2a, 0x89, 0x25, 0x40, 0x01,
 0x89, 0x2a, 0x40, 0x44, 0x99, 0x24, 0x55, 0x04,
 0x99, 0x2a, 0x44, 0x27, 0x89, 0x24, 0x40, 0x03,
 0x89, 0x2a, 0x40, 0x4c, 0x99, 0x24, 0x50, 0x03,
 0x99, 0x2a, 0x49, 0x29, 0x89, 0x24, 0x40, 0x04,
 0x89, 0x2a, 0x40, 0x4a, 0x99, 0x2a, 0x46, 0x2c,
 0x89, 0x2a, 0x40, 0x4a, 0x99, 0x25, 0x6f, 0x05,
 0x99, 0x2a, 0x4a, 0x28, 0x89, 0x25, 0x40, 0x04,
 0x89, 0x2a, 0x40, 0x44, 0x99, 0x24, 0x4f, 0x07,
 0x99, 0x2a, 0x5c, 0x26, 0x89, 0x24, 0x40, 0x05,
 0x89, 0x2a, 0x40, 0x49, 0x99, 0x2f, 0x72, 0x2d,
 0x89, 0x2f, 0x40, 0x4a, 0x99, 0x26, 0x7d, 0x2c,
 0x89, 0x26, 0x40, 0x52, 0x99, 0x26, 0x70, 0x2d,
 0x89, 0x26, 0x40, 0x0b, 0x99, 0x26, 0x53, 0x2c,
 0x89, 0x26, 0x40, 0x0a, 0x99, 0x2b, 0x67, 0x2c,
 0x89, 0x2b, 0x40, 0x00, 0xff, 0x2f, 0x00,
};

int F2_size = sizeof(F2_array);
