#include <stdint.h>

uint8_t F5_array[] = {
 0x4d, 0x54, 0x68, 0x64, 0x00, 0x00, 0x00, 0x06,
 0x00, 0x01, 0x00, 0x02, 0x00, 0xf0, 0x4d, 0x54,
 0x72, 0x6b, 0x00, 0x00, 0x01, 0x31, 0x00, 0xff,
 0x03, 0x16, 0x31, 0x32, 0x30, 0x20, 0x56, 0x65,
 0x72, 0x73, 0x65, 0x20, 0x48, 0x61, 0x6c, 0x66,
 0x2d, 0x54, 0x69, 0x6d, 0x65, 0x20, 0x46, 0x35,
 0x00, 0xff, 0x58, 0x04, 0x04, 0x02, 0x18, 0x08,
 0x00, 0xff, 0x51, 0x03, 0x07, 0xa1, 0x20, 0x00,
 0xff, 0x51, 0x03, 0x07, 0xa1, 0x20, 0x00, 0xff,
 0x51, 0x03, 0x07, 0xa1, 0x20, 0x00, 0xff, 0x51,
 0x03, 0x07, 0xa1, 0x20, 0x00, 0xff, 0x51, 0x03,
 0x07, 0xa1, 0x20, 0x00, 0xff, 0x51, 0x03, 0x07,
 0xa1, 0x20, 0x00, 0xff, 0x51, 0x03, 0x07, 0xa1,
 0x20, 0x00, 0xff, 0x51, 0x03, 0x07, 0xa1, 0x20,
 0x00, 0xff, 0x51, 0x03, 0x07, 0xa1, 0x20, 0x00,
 0xff, 0x51, 0x03, 0x07, 0xa1, 0x20, 0x00, 0xff,
 0x51, 0x03, 0x07, 0xa1, 0x20, 0x00, 0xff, 0x51,
 0x03, 0x07, 0xa1, 0x20, 0x00, 0xff, 0x51, 0x03,
 0x07, 0xa1, 0x20, 0x00, 0xff, 0x51, 0x03, 0x07,
 0xa1, 0x20, 0x00, 0xff, 0x51, 0x03, 0x07, 0xa1,
 0x20, 0x00, 0xff, 0x51, 0x03, 0x07, 0xa1, 0x20,
 0x00, 0xff, 0x51, 0x03, 0x07, 0xa1, 0x20, 0x00,
 0xff, 0x51, 0x03, 0x07, 0xa1, 0x20, 0x00, 0xff,
 0x51, 0x03, 0x07, 0xa1, 0x20, 0x00, 0xff, 0x51,
 0x03, 0x07, 0xa1, 0x20, 0x00, 0xff, 0x51, 0x03,
 0x07, 0xa1, 0x20, 0x00, 0xff, 0x51, 0x03, 0x07,
 0xa1, 0x20, 0x00, 0xff, 0x51, 0x03, 0x07, 0xa1,
 0x20, 0x00, 0xff, 0x51, 0x03, 0x07, 0xa1, 0x20,
 0x00, 0xff, 0x51, 0x03, 0x07, 0xa1, 0x20, 0x00,
 0xff, 0x51, 0x03, 0x07, 0xa1, 0x20, 0x00, 0xff,
 0x51, 0x03, 0x07, 0xa1, 0x20, 0x00, 0xff, 0x51,
 0x03, 0x07, 0xa1, 0x20, 0x00, 0xff, 0x51, 0x03,
 0x07, 0xa1, 0x20, 0x00, 0xff, 0x51, 0x03, 0x07,
 0xa1, 0x20, 0x00, 0xff, 0x51, 0x03, 0x07, 0xa1,
 0x20, 0x00, 0xff, 0x51, 0x03, 0x07, 0xa1, 0x20,
 0x00, 0xff, 0x51, 0x03, 0x07, 0xa1, 0x20, 0x00,
 0xff, 0x51, 0x03, 0x07, 0xa1, 0x20, 0x00, 0xff,
 0x51, 0x03, 0x07, 0xa1, 0x20, 0x00, 0xff, 0x51,
 0x03, 0x07, 0xa1, 0x20, 0x00, 0xff, 0x51, 0x03,
 0x07, 0xa1, 0x20, 0xbc, 0x00, 0xff, 0x51, 0x03,
 0x07, 0xa1, 0x20, 0x00, 0xff, 0x2f, 0x00, 0x4d,
 0x54, 0x72, 0x6b, 0x00, 0x00, 0x03, 0x08, 0x00,
 0xff, 0x03, 0x16, 0x31, 0x32, 0x30, 0x20, 0x56,
 0x65, 0x72, 0x73, 0x65, 0x20, 0x48, 0x61, 0x6c,
 0x66, 0x2d, 0x54, 0x69, 0x6d, 0x65, 0x20, 0x46,
 0x35, 0x00, 0xff, 0x03, 0x16, 0x31, 0x32, 0x30,
 0x20, 0x56, 0x65, 0x72, 0x73, 0x65, 0x20, 0x48,
 0x61, 0x6c, 0x66, 0x2d, 0x54, 0x69, 0x6d, 0x65,
 0x20, 0x46, 0x35, 0x00, 0x99, 0x31, 0x6f, 0x00,
 0x99, 0x24, 0x67, 0x2f, 0x89, 0x31, 0x40, 0x01,
 0x89, 0x24, 0x40, 0x46, 0x99, 0x2a, 0x4f, 0x30,
 0x89, 0x2a, 0x40, 0x4a, 0x99, 0x2a, 0x54, 0x30,
 0x89, 0x2a, 0x40, 0x42, 0x99, 0x2a, 0x50, 0x31,
 0x89, 0x2a, 0x40, 0x48, 0x99, 0x26, 0x77, 0x00,
 0x99, 0x2a, 0x51, 0x30, 0x89, 0x26, 0x40, 0x01,
 0x89, 0x2a, 0x40, 0x4c, 0x99, 0x2a, 0x28, 0x30,
 0x89, 0x2a, 0x40, 0x42, 0x99, 0x2a, 0x38, 0x30,
 0x89, 0x2a, 0x40, 0x46, 0x99, 0x2a, 0x2a, 0x2f,
 0x89, 0x2a, 0x40, 0x48, 0x99, 0x2a, 0x38, 0x30,
 0x89, 0x2a, 0x40, 0x47, 0x99, 0x2a, 0x43, 0x01,
 0x99, 0x24, 0x4f, 0x2f, 0x89, 0x2a, 0x40, 0x01,
 0x89, 0x24, 0x40, 0x48, 0x99, 0x2a, 0x3c, 0x06,
 0x99, 0x24, 0x50, 0x2b, 0x89, 0x2a, 0x40, 0x04,
 0x89, 0x24, 0x40, 0x43, 0x99, 0x2a, 0x43, 0x30,
 0x89, 0x2a, 0x40, 0x48, 0x99, 0x26, 0x74, 0x01,
 0x99, 0x2a, 0x60, 0x2f, 0x89, 0x26, 0x40, 0x00,
 0x89, 0x2a, 0x40, 0x49, 0x99, 0x2a, 0x48, 0x2f,
 0x89, 0x2a, 0x40, 0x45, 0x99, 0x2a, 0x3e, 0x31,
 0x89, 0x2a, 0x40, 0x44, 0x99, 0x2a, 0x50, 0x31,
 0x89, 0x2a, 0x40, 0x46, 0x99, 0x24, 0x50, 0x07,
 0x99, 0x2a, 0x56, 0x2b, 0x89, 0x24, 0x40, 0x03,
 0x89, 0x2a, 0x40, 0x4f, 0x99, 0x2a, 0x46, 0x2f,
 0x89, 0x2a, 0x40, 0x43, 0x99, 0x24, 0x4f, 0x02,
 0x99, 0x2a, 0x60, 0x2e, 0x89, 0x24, 0x40, 0x02,
 0x89, 0x2a, 0x40, 0x4a, 0x99, 0x2a, 0x52, 0x31,
 0x89, 0x2a, 0x40, 0x47, 0x99, 0x26, 0x77, 0x01,
 0x99, 0x2a, 0x7b, 0x2f, 0x89, 0x26, 0x40, 0x02,
 0x89, 0x2a, 0x40, 0x4c, 0x99, 0x2a, 0x4f, 0x30,
 0x89, 0x2a, 0x40, 0x4c, 0x99, 0x2a, 0x48, 0x31,
 0x89, 0x2a, 0x40, 0x3f, 0x99, 0x26, 0x71, 0x04,
 0x99, 0x2a, 0x7f, 0x2c, 0x89, 0x26, 0x40, 0x04,
 0x89, 0x2a, 0x40, 0x4b, 0x99, 0x2a, 0x3a, 0x30,
 0x89, 0x2a, 0x40, 0x43, 0x99, 0x2a, 0x54, 0x00,
 0x99, 0x24, 0x53, 0x30, 0x89, 0x2a, 0x40, 0x02,
 0x89, 0x24, 0x40, 0x3f, 0x99, 0x24, 0x53, 0x03,
 0x99, 0x2a, 0x5e, 0x2e, 0x89, 0x24, 0x40, 0x01,
 0x89, 0x2a, 0x40, 0x4e, 0x99, 0x2a, 0x6c, 0x31,
 0x89, 0x2a, 0x40, 0x44, 0x99, 0x26, 0x76, 0x02,
 0x99, 0x2a, 0x5d, 0x2f, 0x89, 0x26, 0x40, 0x00,
 0x89, 0x2a, 0x40, 0x4b, 0x99, 0x2a, 0x58, 0x30,
 0x89, 0x2a, 0x40, 0x43, 0x99, 0x2a, 0x50, 0x31,
 0x89, 0x2a, 0x40, 0x48, 0x99, 0x2a, 0x54, 0x31,
 0x89, 0x2a, 0x40, 0x48, 0x99, 0x24, 0x4f, 0x01,
 0x99, 0x2a, 0x60, 0x30, 0x89, 0x24, 0x40, 0x00,
 0x89, 0x2a, 0x40, 0x48, 0x99, 0x2a, 0x63, 0x30,
 0x89, 0x2a, 0x40, 0x44, 0x99, 0x24, 0x55, 0x00,
 0x99, 0x2a, 0x64, 0x30, 0x89, 0x24, 0x40, 0x00,
 0x89, 0x2a, 0x40, 0x4f, 0x99, 0x2a, 0x4a, 0x31,
 0x89, 0x2a, 0x40, 0x40, 0x99, 0x2a, 0x7a, 0x00,
 0x99, 0x26, 0x78, 0x30, 0x89, 0x2a, 0x40, 0x01,
 0x89, 0x26, 0x40, 0x47, 0x99, 0x2a, 0x58, 0x30,
 0x89, 0x2a, 0x40, 0x49, 0x99, 0x2a, 0x45, 0x31,
 0x89, 0x2a, 0x40, 0x4b, 0x99, 0x2a, 0x5e, 0x30,
 0x89, 0x2a, 0x40, 0x4a, 0x99, 0x2a, 0x4b, 0x31,
 0x89, 0x2a, 0x40, 0x45, 0x99, 0x24, 0x54, 0x01,
 0x99, 0x2a, 0x5a, 0x2e, 0x89, 0x24, 0x40, 0x01,
 0x89, 0x2a, 0x40, 0x4b, 0x99, 0x2a, 0x61, 0x01,
 0x99, 0x24, 0x54, 0x2f, 0x89, 0x2a, 0x40, 0x01,
 0x89, 0x24, 0x40, 0x46, 0x99, 0x2a, 0x66, 0x30,
 0x89, 0x2a, 0x40, 0x4e, 0x99, 0x26, 0x78, 0x03,
 0x99, 0x2a, 0x63, 0x2d, 0x89, 0x26, 0x40, 0x02,
 0x89, 0x2a, 0x40, 0x3f, 0x99, 0x2a, 0x63, 0x30,
 0x89, 0x2a, 0x40, 0x47, 0x99, 0x2a, 0x51, 0x31,
 0x89, 0x2a, 0x40, 0x45, 0x99, 0x2a, 0x4b, 0x30,
 0x89, 0x2a, 0x40, 0x4a, 0x99, 0x2a, 0x5a, 0x01,
 0x99, 0x24, 0x54, 0x30, 0x89, 0x2a, 0x40, 0x00,
 0x89, 0x24, 0x40, 0x45, 0x99, 0x2a, 0x52, 0x26,
 0x89, 0x2a, 0x40, 0x4c, 0x99, 0x24, 0x53, 0x03,
 0x99, 0x2a, 0x51, 0x2d, 0x89, 0x24, 0x40, 0x02,
 0x89, 0x2a, 0x40, 0x4a, 0x99, 0x2a, 0x58, 0x31,
 0x89, 0x2a, 0x40, 0x43, 0x99, 0x26, 0x78, 0x01,
 0x99, 0x2a, 0x70, 0x2e, 0x89, 0x26, 0x40, 0x02,
 0x89, 0x2a, 0x40, 0x47, 0x99, 0x2a, 0x4f, 0x30,
 0x89, 0x2a, 0x40, 0x47, 0x99, 0x2a, 0x3f, 0x2f,
 0x89, 0x2a, 0x40, 0x41, 0x99, 0x2a, 0x7e, 0x09,
 0x99, 0x26, 0x20, 0x28, 0x89, 0x2a, 0x40, 0x09,
 0x89, 0x26, 0x40, 0x49, 0x99, 0x26, 0x6d, 0x03,
 0x99, 0x2a, 0x7f, 0x2e, 0x89, 0x26, 0x40, 0x02,
 0x89, 0x2a, 0x40, 0x42, 0x99, 0x2a, 0x28, 0x30,
 0x89, 0x2a, 0x40, 0x11, 0x99, 0x2f, 0x3a, 0x31,
 0x89, 0x2f, 0x40, 0x06, 0x99, 0x2f, 0x4f, 0x30,
 0x89, 0x2f, 0x40, 0x48, 0x99, 0x2f, 0x72, 0x30,
 0x89, 0x2f, 0x40, 0x45, 0x99, 0x2d, 0x72, 0x2f,
 0x89, 0x2d, 0x40, 0x49, 0x99, 0x26, 0x2b, 0x30,
 0x89, 0x26, 0x40, 0x49, 0x99, 0x26, 0x67, 0x0d,
 0x89, 0x26, 0x40, 0x01, 0x99, 0x26, 0x7f, 0x30,
 0x89, 0x26, 0x40, 0x41, 0x99, 0x24, 0x59, 0x01,
 0x99, 0x39, 0x69, 0x2e, 0x89, 0x24, 0x40, 0x02,
 0x89, 0x39, 0x40, 0x00, 0xff, 0x2f, 0x00,
};

int F5_size = sizeof(F5_array);
