#include <stdint.h>

uint8_t Intro_array[] = {
 0x4d, 0x54, 0x68, 0x64, 0x00, 0x00, 0x00, 0x06,
 0x00, 0x01, 0x00, 0x02, 0x00, 0xf0, 0x4d, 0x54,
 0x72, 0x6b, 0x00, 0x00, 0x00, 0xc8, 0x00, 0xff,
 0x03, 0x16, 0x31, 0x31, 0x30, 0x20, 0x49, 0x6e,
 0x74, 0x72, 0x6f, 0x20, 0x53, 0x69, 0x6e, 0x67,
 0x6c, 0x65, 0x20, 0x42, 0x42, 0x20, 0x46, 0x34,
 0x00, 0xff, 0x58, 0x04, 0x04, 0x02, 0x18, 0x08,
 0x00, 0xff, 0x51, 0x03, 0x08, 0x52, 0xaf, 0x00,
 0xff, 0x51, 0x03, 0x08, 0x52, 0xaf, 0x00, 0xff,
 0x51, 0x03, 0x08, 0x52, 0xaf, 0x00, 0xff, 0x51,
 0x03, 0x08, 0x52, 0xaf, 0x00, 0xff, 0x51, 0x03,
 0x08, 0x52, 0xaf, 0x00, 0xff, 0x51, 0x03, 0x08,
 0x52, 0xaf, 0x00, 0xff, 0x51, 0x03, 0x08, 0x52,
 0xaf, 0x00, 0xff, 0x51, 0x03, 0x08, 0x52, 0xaf,
 0x00, 0xff, 0x51, 0x03, 0x08, 0x52, 0xaf, 0x00,
 0xff, 0x51, 0x03, 0x08, 0x52, 0xaf, 0x00, 0xff,
 0x51, 0x03, 0x08, 0x52, 0xaf, 0x00, 0xff, 0x51,
 0x03, 0x08, 0x52, 0xaf, 0x00, 0xff, 0x51, 0x03,
 0x08, 0x52, 0xaf, 0x00, 0xff, 0x51, 0x03, 0x08,
 0x52, 0xaf, 0x00, 0xff, 0x51, 0x03, 0x08, 0x52,
 0xaf, 0x00, 0xff, 0x51, 0x03, 0x08, 0x52, 0xaf,
 0x00, 0xff, 0x51, 0x03, 0x08, 0x52, 0xaf, 0x00,
 0xff, 0x51, 0x03, 0x08, 0x52, 0xaf, 0x00, 0xff,
 0x51, 0x03, 0x08, 0x52, 0xaf, 0x00, 0xff, 0x51,
 0x03, 0x08, 0x52, 0xaf, 0x00, 0xff, 0x51, 0x03,
 0x08, 0x52, 0xaf, 0x00, 0xff, 0x51, 0x03, 0x08,
 0x52, 0xaf, 0xbc, 0x00, 0xff, 0x51, 0x03, 0x08,
 0x52, 0xaf, 0x00, 0xff, 0x2f, 0x00, 0x4d, 0x54,
 0x72, 0x6b, 0x00, 0x00, 0x03, 0x50, 0x00, 0xff,
 0x03, 0x16, 0x31, 0x31, 0x30, 0x20, 0x49, 0x6e,
 0x74, 0x72, 0x6f, 0x20, 0x53, 0x69, 0x6e, 0x67,
 0x6c, 0x65, 0x20, 0x42, 0x42, 0x20, 0x46, 0x34,
 0x00, 0xff, 0x03, 0x16, 0x31, 0x31, 0x30, 0x20,
 0x49, 0x6e, 0x74, 0x72, 0x6f, 0x20, 0x53, 0x69,
 0x6e, 0x67, 0x6c, 0x65, 0x20, 0x42, 0x42, 0x20,
 0x46, 0x34, 0x00, 0x99, 0x39, 0x70, 0x00, 0x99,
 0x24, 0x67, 0x2d, 0x89, 0x39, 0x40, 0x00, 0x89,
 0x24, 0x40, 0x50, 0x99, 0x33, 0x3f, 0x2d, 0x89,
 0x33, 0x40, 0x4e, 0x99, 0x26, 0x78, 0x00, 0x99,
 0x33, 0x57, 0x2c, 0x89, 0x26, 0x40, 0x00, 0x89,
 0x33, 0x40, 0x4c, 0x99, 0x33, 0x3e, 0x2c, 0x89,
 0x33, 0x40, 0x4d, 0x99, 0x33, 0x47, 0x2e, 0x89,
 0x33, 0x40, 0x3c, 0x99, 0x24, 0x53, 0x0a, 0x99,
 0x33, 0x57, 0x22, 0x89, 0x24, 0x40, 0x09, 0x89,
 0x33, 0x40, 0x4d, 0x99, 0x33, 0x61, 0x2d, 0x89,
 0x33, 0x40, 0x48, 0x99, 0x24, 0x54, 0x06, 0x99,
 0x33, 0x47, 0x26, 0x89, 0x24, 0x40, 0x06, 0x89,
 0x33, 0x40, 0x46, 0x99, 0x24, 0x5e, 0x04, 0x99,
 0x33, 0x65, 0x28, 0x89, 0x24, 0x40, 0x05, 0x89,
 0x33, 0x40, 0x4d, 0x99, 0x33, 0x4a, 0x2d, 0x89,
 0x33, 0x40, 0x48, 0x99, 0x26, 0x76, 0x02, 0x99,
 0x33, 0x69, 0x29, 0x89, 0x26, 0x40, 0x02, 0x89,
 0x33, 0x40, 0x47, 0x99, 0x33, 0x50, 0x2c, 0x89,
 0x33, 0x40, 0x4d, 0x99, 0x33, 0x56, 0x2d, 0x89,
 0x33, 0x40, 0x4a, 0x99, 0x24, 0x55, 0x01, 0x99,
 0x33, 0x55, 0x2a, 0x89, 0x24, 0x40, 0x03, 0x89,
 0x33, 0x40, 0x4c, 0x99, 0x33, 0x59, 0x2d, 0x89,
 0x33, 0x40, 0x46, 0x99, 0x24, 0x51, 0x04, 0x99,
 0x33, 0x53, 0x29, 0x89, 0x24, 0x40, 0x04, 0x89,
 0x33, 0x40, 0x43, 0x99, 0x24, 0x5b, 0x0a, 0x99,
 0x33, 0x63, 0x23, 0x89, 0x24, 0x40, 0x09, 0x89,
 0x33, 0x40, 0x4c, 0x99, 0x33, 0x50, 0x2e, 0x89,
 0x33, 0x40, 0x49, 0x99, 0x33, 0x68, 0x01, 0x99,
 0x26, 0x71, 0x2c, 0x89, 0x33, 0x40, 0x00, 0x89,
 0x26, 0x40, 0x53, 0x99, 0x33, 0x4f, 0x2d, 0x89,
 0x33, 0x40, 0x4d, 0x99, 0x33, 0x5c, 0x2a, 0x89,
 0x33, 0x40, 0x49, 0x99, 0x33, 0x55, 0x01, 0x99,
 0x24, 0x55, 0x2c, 0x89, 0x33, 0x40, 0x00, 0x89,
 0x24, 0x40, 0x48, 0x99, 0x33, 0x63, 0x2d, 0x89,
 0x33, 0x40, 0x4a, 0x99, 0x33, 0x55, 0x00, 0x99,
 0x24, 0x56, 0x2c, 0x89, 0x33, 0x40, 0x01, 0x89,
 0x24, 0x40, 0x4a, 0x99, 0x24, 0x5e, 0x05, 0x99,
 0x33, 0x57, 0x27, 0x89, 0x24, 0x40, 0x04, 0x89,
 0x33, 0x40, 0x4a, 0x99, 0x33, 0x4f, 0x2d, 0x89,
 0x33, 0x40, 0x4a, 0x99, 0x26, 0x75, 0x00, 0x99,
 0x33, 0x61, 0x2b, 0x89, 0x26, 0x40, 0x02, 0x89,
 0x33, 0x40, 0x4c, 0x99, 0x33, 0x55, 0x2c, 0x89,
 0x33, 0x40, 0x4a, 0x99, 0x33, 0x5c, 0x2c, 0x89,
 0x33, 0x40, 0x4a, 0x99, 0x24, 0x5a, 0x03, 0x99,
 0x33, 0x5d, 0x2a, 0x89, 0x24, 0x40, 0x03, 0x89,
 0x33, 0x40, 0x45, 0x99, 0x33, 0x5e, 0x2c, 0x89,
 0x33, 0x40, 0x48, 0x99, 0x24, 0x51, 0x04, 0x99,
 0x33, 0x61, 0x28, 0x89, 0x24, 0x40, 0x05, 0x89,
 0x33, 0x40, 0x49, 0x99, 0x24, 0x6a, 0x04, 0x99,
 0x31, 0x6b, 0x26, 0x89, 0x24, 0x40, 0x06, 0x89,
 0x31, 0x40, 0x4b, 0x99, 0x33, 0x4a, 0x2d, 0x89,
 0x33, 0x40, 0x4f, 0x99, 0x26, 0x78, 0x01, 0x99,
 0x33, 0x60, 0x2c, 0x89, 0x26, 0x40, 0x01, 0x89,
 0x33, 0x40, 0x4a, 0x99, 0x33, 0x54, 0x2d, 0x89,
 0x33, 0x40, 0x4d, 0x99, 0x33, 0x55, 0x2e, 0x89,
 0x33, 0x40, 0x41, 0x99, 0x24, 0x50, 0x06, 0x99,
 0x33, 0x57, 0x27, 0x89, 0x24, 0x40, 0x06, 0x89,
 0x33, 0x40, 0x4b, 0x99, 0x33, 0x57, 0x2d, 0x89,
 0x33, 0x40, 0x48, 0x99, 0x24, 0x56, 0x01, 0x99,
 0x33, 0x53, 0x2c, 0x89, 0x24, 0x40, 0x01, 0x89,
 0x33, 0x40, 0x46, 0x99, 0x24, 0x5d, 0x06, 0x99,
 0x33, 0x5e, 0x27, 0x89, 0x24, 0x40, 0x04, 0x89,
 0x33, 0x40, 0x49, 0x99, 0x33, 0x4c, 0x2c, 0x89,
 0x33, 0x40, 0x4d, 0x99, 0x26, 0x78, 0x00, 0x99,
 0x33, 0x65, 0x2c, 0x89, 0x26, 0x40, 0x01, 0x89,
 0x33, 0x40, 0x4d, 0x99, 0x33, 0x59, 0x2c, 0x89,
 0x33, 0x40, 0x4c, 0x99, 0x33, 0x57, 0x2d, 0x89,
 0x33, 0x40, 0x48, 0x99, 0x24, 0x59, 0x05, 0x99,
 0x33, 0x54, 0x28, 0x89, 0x24, 0x40, 0x05, 0x89,
 0x33, 0x40, 0x4b, 0x99, 0x33, 0x5a, 0x2e, 0x89,
 0x33, 0x40, 0x4a, 0x99, 0x24, 0x54, 0x00, 0x99,
 0x33, 0x5a, 0x2b, 0x89, 0x24, 0x40, 0x02, 0x89,
 0x33, 0x40, 0x47, 0x99, 0x24, 0x66, 0x04, 0x99,
 0x33, 0x60, 0x28, 0x89, 0x24, 0x40, 0x03, 0x89,
 0x33, 0x40, 0x4d, 0x99, 0x33, 0x4d, 0x2d, 0x89,
 0x33, 0x40, 0x4c, 0x99, 0x26, 0x77, 0x02, 0x99,
 0x33, 0x5e, 0x2a, 0x89, 0x26, 0x40, 0x01, 0x89,
 0x33, 0x40, 0x4e, 0x99, 0x33, 0x50, 0x2c, 0x89,
 0x33, 0x40, 0x50, 0x99, 0x33, 0x54, 0x2d, 0x89,
 0x33, 0x40, 0x46, 0x99, 0x24, 0x5c, 0x04, 0x99,
 0x33, 0x5f, 0x26, 0x89, 0x24, 0x40, 0x06, 0x89,
 0x33, 0x40, 0x47, 0x99, 0x33, 0x63, 0x2c, 0x89,
 0x33, 0x40, 0x49, 0x99, 0x24, 0x50, 0x03, 0x99,
 0x33, 0x5c, 0x2a, 0x89, 0x24, 0x40, 0x03, 0x89,
 0x33, 0x40, 0x49, 0x99, 0x24, 0x69, 0x02, 0x99,
 0x33, 0x61, 0x2a, 0x89, 0x24, 0x40, 0x03, 0x89,
 0x33, 0x40, 0x49, 0x99, 0x33, 0x55, 0x2d, 0x89,
 0x33, 0x40, 0x48, 0x99, 0x26, 0x7f, 0x01, 0x99,
 0x33, 0x69, 0x2d, 0x89, 0x26, 0x40, 0x00, 0x89,
 0x33, 0x40, 0x4a, 0x99, 0x24, 0x56, 0x02, 0x99,
 0x33, 0x5a, 0x29, 0x89, 0x24, 0x40, 0x03, 0x89,
 0x33, 0x40, 0x4d, 0x99, 0x2f, 0x72, 0x01, 0x99,
 0x33, 0x74, 0x2b, 0x89, 0x2f, 0x40, 0x00, 0x89,
 0x33, 0x40, 0x48, 0x99, 0x2b, 0x72, 0x2c, 0x89,
 0x2b, 0x40, 0x16, 0x99, 0x26, 0x2b, 0x17, 0x89,
 0x26, 0x40, 0x01, 0x99, 0x26, 0x23, 0x17, 0x89,
 0x26, 0x40, 0x0e, 0x99, 0x26, 0x7f, 0x2c, 0x89,
 0x26, 0x40, 0x4b, 0x99, 0x26, 0x73, 0x2c, 0x89,
 0x26, 0x40, 0x0f, 0x99, 0x26, 0x70, 0x2c, 0x89,
 0x26, 0x40, 0x00, 0xff, 0x2f, 0x00,
};

int Intro_size = sizeof(Intro_array);
